<?xml version="1.0" encoding="utf-8"?>
<!-- Generator: Adobe Illustrator 22.0.1, SVG Export Plug-In . SVG Version: 6.00 Build 0)  -->
<svg version="1.1" id="Capa_1" xmlns="http://www.w3.org/2000/svg" xmlns:xlink="http://www.w3.org/1999/xlink" x="0px" y="0px"
	 viewBox="0 0 103.7 740.6" style="enable-background:new 0 0 103.7 740.6;" xml:space="preserve">
<style type="text/css">
	.st0{fill:#110A32;}
</style>
<path class="st0" d="M96.5,47.5C96.4,47.5,96.4,47.5,96.5,47.5L52.7,3.7c-0.1-0.1-0.2-0.2-0.4-0.3c0,0-0.1-0.1-0.2-0.1
	c-0.1,0-0.2-0.1-0.3-0.1c-0.1,0-0.1,0-0.2-0.1c-0.1,0-0.2-0.1-0.2-0.1c-0.1,0-0.3,0-0.4,0c0,0,0,0-0.1,0c0,0-0.1,0-0.1,0
	c-0.1,0-0.2,0-0.3,0c-0.1,0-0.2,0-0.2,0.1c-0.1,0-0.1,0-0.2,0.1c-0.1,0-0.2,0.1-0.3,0.1c-0.1,0-0.1,0.1-0.2,0.1
	c-0.1,0.1-0.3,0.2-0.4,0.3L5.5,47.4C4.8,48.1,4.7,49.1,5,50c0,0,0,0,0,0c0,0.1,0.1,0.2,0.2,0.4c0,0,0,0,0,0.1
	c0.1,0.1,0.1,0.2,0.2,0.3c0,0,0,0.1,0.1,0.1c0,0,0,0,0,0c0,0,0,0,0,0c0.1,0.1,0.2,0.1,0.2,0.2c0,0,0.1,0.1,0.1,0.1
	c0.1,0.1,0.2,0.1,0.3,0.2c0,0,0.1,0,0.1,0.1c0.1,0,0.2,0.1,0.3,0.1c0,0,0.1,0,0.1,0c0.1,0,0.2,0,0.3,0c0.1,0,0.1,0,0.2,0
	c0.1,0,0.1,0,0.2,0c0.1,0,0.2,0,0.2,0c0,0,0.1,0,0.1,0c0.4-0.1,0.8-0.3,1.1-0.6l39.6-39.6v141.1c0,1.3,1.1,2.4,2.4,2.4
	c1.1,0,2.1-0.8,2.4-1.9c0,0,0-0.1,0-0.1c0-0.1,0-0.2,0-0.2c0-0.1,0-0.2,0-0.2v0V11.3L93,50.9c0.1,0.1,0.1,0.1,0.2,0.1
	c0.9,0.8,2.4,0.8,3.3-0.1C97.4,50,97.4,48.5,96.5,47.5z"/>
<g>
	<path d="M74.1,714.8c-1.1,2.5-2.7,4.5-4.7,5.9c-2,1.4-4.3,2.2-7,2.2v-6.7c2.3-0.2,4.2-1.2,5.7-2.8c1.6-1.6,2.3-4,2.3-7.2
		c0-3-0.8-5.4-2.3-7.1c-1.5-1.7-3.4-2.6-5.8-2.6c-1.9,0-3.4,0.5-4.5,1.5c-1.2,1-2,2.3-2.6,3.8c-0.6,1.5-1.3,3.6-1.9,6.2
		c-0.8,3.2-1.7,5.8-2.5,7.7c-0.8,1.9-2.1,3.6-3.9,4.9c-1.8,1.4-4.2,2.1-7.2,2.1c-2.6,0-5-0.7-7-2c-2-1.3-3.6-3.2-4.7-5.7
		c-1.1-2.4-1.7-5.2-1.7-8.4c0-4.5,1.1-8.3,3.4-11.2c2.3-2.9,5.3-4.5,9-4.9v7c-1.9,0.2-3.5,1.2-4.9,2.9c-1.4,1.7-2.1,4-2.1,6.8
		c0,2.6,0.7,4.8,2.1,6.5c1.4,1.7,3.3,2.5,5.7,2.5c1.8,0,3.2-0.5,4.3-1.5s2-2.2,2.5-3.7c0.6-1.5,1.2-3.5,2-6.2
		c0.9-3.2,1.8-5.8,2.6-7.7c0.9-1.9,2.2-3.6,4-5c1.8-1.4,4.2-2.1,7.3-2.1c2.4,0,4.6,0.6,6.7,1.9s3.8,3.1,5.1,5.6
		c1.3,2.5,1.9,5.4,1.9,8.7C75.8,709.4,75.2,712.2,74.1,714.8z"/>
	<path d="M38.3,679.9c-3.8-2.1-6.7-5-8.9-8.7c-2.1-3.7-3.2-7.8-3.2-12.3c0-5.3,1.3-9.9,3.8-13.8c2.6-3.9,6.2-6.8,10.8-8.6v7.6
		c-2.9,1.3-5.2,3.3-6.7,5.8c-1.6,2.5-2.4,5.6-2.4,9.1c0,3.4,0.8,6.4,2.4,9.1c1.6,2.7,3.8,4.8,6.7,6.3c2.9,1.5,6.3,2.3,10.2,2.3
		c3.8,0,7.2-0.8,10.1-2.3c2.9-1.5,5.1-3.6,6.7-6.3c1.6-2.7,2.4-5.7,2.4-9.1c0-3.5-0.8-6.5-2.3-9.1c-1.6-2.5-3.8-4.5-6.7-5.8v-7.6
		c4.6,1.8,8.2,4.7,10.7,8.6c2.5,3.9,3.8,8.6,3.8,13.8c0,4.5-1.1,8.6-3.2,12.3c-2.1,3.7-5,6.6-8.8,8.7c-3.8,2.1-8,3.2-12.7,3.2
		S42,682,38.3,679.9z"/>
	<path d="M75.3,601.5L55.5,613v7.7h19.8v6.3H26.8v-15.6c0-3.7,0.6-6.8,1.9-9.3c1.3-2.5,2.9-4.4,5.1-5.7c2.1-1.3,4.6-1.9,7.3-1.9
		c3.3,0,6.3,1,8.8,2.9c2.6,1.9,4.2,4.8,5.1,8.7l20.3-12.2V601.5z M50.4,620.7v-9.3c0-3.4-0.8-6-2.5-7.7c-1.7-1.7-4-2.6-6.8-2.6
		c-2.9,0-5.1,0.8-6.7,2.5c-1.6,1.7-2.4,4.3-2.4,7.8v9.3H50.4z"/>
	<path d="M72.6,575.1c-2.1,3.7-5.1,6.6-8.8,8.8c-3.8,2.2-8,3.2-12.8,3.2s-9-1.1-12.8-3.2c-3.8-2.2-6.7-5.1-8.8-8.8
		c-2.1-3.7-3.2-7.8-3.2-12.3c0-4.5,1.1-8.7,3.2-12.4c2.1-3.7,5-6.6,8.8-8.8c3.8-2.1,8-3.2,12.8-3.2c4.8,0,9,1.1,12.8,3.2
		c3.8,2.1,6.7,5.1,8.8,8.8c2.1,3.7,3.2,7.8,3.2,12.4C75.8,567.3,74.7,571.4,72.6,575.1z M67.9,553.6c-1.6-2.7-3.8-4.8-6.7-6.4
		c-2.9-1.6-6.3-2.3-10.2-2.3c-3.9,0-7.3,0.8-10.2,2.3c-2.9,1.6-5.1,3.7-6.7,6.4c-1.6,2.7-2.4,5.8-2.4,9.2c0,3.4,0.8,6.5,2.4,9.2
		c1.6,2.7,3.8,4.8,6.7,6.4c2.9,1.6,6.3,2.3,10.2,2.3c3.8,0,7.2-0.8,10.2-2.3c2.9-1.6,5.2-3.7,6.7-6.4c1.6-2.7,2.4-5.8,2.4-9.1
		C70.3,559.4,69.5,556.3,67.9,553.6z"/>
	<path d="M70.1,523.7v-17h5.1v23.3H26.8v-6.3H70.1z"/>
	<path d="M70.1,493.7v-17h5.1V500H26.8v-6.3H70.1z"/>
	<path d="M26.8,421.6H32v13.2h43.3v6.3H32v13.3h-5.1V421.6z"/>
	<path d="M72.6,404.1c-2.1,3.7-5.1,6.6-8.8,8.8c-3.8,2.2-8,3.2-12.8,3.2s-9-1.1-12.8-3.2c-3.8-2.2-6.7-5.1-8.8-8.8
		c-2.1-3.7-3.2-7.8-3.2-12.3c0-4.5,1.1-8.7,3.2-12.4c2.1-3.7,5-6.6,8.8-8.8c3.8-2.1,8-3.2,12.8-3.2c4.8,0,9,1.1,12.8,3.2
		c3.8,2.1,6.7,5.1,8.8,8.8c2.1,3.7,3.2,7.8,3.2,12.4C75.8,396.3,74.7,400.4,72.6,404.1z M67.9,382.7c-1.6-2.7-3.8-4.8-6.7-6.4
		c-2.9-1.6-6.3-2.3-10.2-2.3c-3.9,0-7.3,0.8-10.2,2.3c-2.9,1.6-5.1,3.7-6.7,6.4c-1.6,2.7-2.4,5.8-2.4,9.2c0,3.4,0.8,6.5,2.4,9.2
		c1.6,2.7,3.8,4.8,6.7,6.4c2.9,1.6,6.3,2.3,10.2,2.3c3.8,0,7.2-0.8,10.2-2.3c2.9-1.6,5.2-3.7,6.7-6.4c1.6-2.7,2.4-5.8,2.4-9.1
		C70.3,388.4,69.5,385.4,67.9,382.7z"/>
	<path d="M26.8,310.7H32v13.2h43.3v6.3H32v13.3h-5.1V310.7z"/>
	<path d="M72.6,293.3c-2.1,3.7-5.1,6.6-8.8,8.8c-3.8,2.2-8,3.2-12.8,3.2s-9-1.1-12.8-3.2c-3.8-2.2-6.7-5.1-8.8-8.8
		c-2.1-3.7-3.2-7.8-3.2-12.3c0-4.5,1.1-8.7,3.2-12.4c2.1-3.7,5-6.6,8.8-8.8c3.8-2.1,8-3.2,12.8-3.2c4.8,0,9,1.1,12.8,3.2
		c3.8,2.1,6.7,5.1,8.8,8.8c2.1,3.7,3.2,7.8,3.2,12.4C75.8,285.5,74.7,289.6,72.6,293.3z M67.9,271.8c-1.6-2.7-3.8-4.8-6.7-6.4
		c-2.9-1.6-6.3-2.3-10.2-2.3c-3.9,0-7.3,0.8-10.2,2.3c-2.9,1.6-5.1,3.7-6.7,6.4c-1.6,2.7-2.4,5.8-2.4,9.2c0,3.4,0.8,6.5,2.4,9.2
		c1.6,2.7,3.8,4.8,6.7,6.4c2.9,1.6,6.3,2.3,10.2,2.3c3.8,0,7.2-0.8,10.2-2.3c2.9-1.6,5.2-3.7,6.7-6.4c1.6-2.7,2.4-5.8,2.4-9.1
		C70.3,277.6,69.5,274.5,67.9,271.8z"/>
	<path d="M51.1,220c2.7,2.8,4,7,4,12.6v9.3h20.2v6.3H26.8v-15.6c0-5.5,1.3-9.6,4-12.5c2.6-2.9,6.1-4.3,10.2-4.3
		C45,215.9,48.4,217.3,51.1,220z M47.5,224.8c-1.5-1.7-3.7-2.5-6.5-2.5c-6,0-9,3.4-9,10.3v9.3h17.8v-9.3
		C49.8,229.1,49.1,226.5,47.5,224.8z"/>
</g>
</svg>
