<?xml version="1.0" encoding="utf-8"?>
<!-- Copyright © 2021 SeparateWeb.com All rights reserved. Rajesh-Doot  -->
<svg version="1.1" id="Layer_1" xmlns="http://www.w3.org/2000/svg" xmlns:xlink="http://www.w3.org/1999/xlink" x="0px" y="0px" width="1851" height="329"
	 viewBox="0 0 1851.8 329.1" style="enable-background:new 0 0 1851.8 329.1;" xml:space="preserve">
<style type="text/css">
	.st0{display:none;fill:#0057FF;}
	.st1{fill:#0057FF;}
	.st2{fill:#000;}
</style>
<path class="st0" d="M950.9-223.7l-52.2,90.5l-3.6,6.3c-24.2-17.5-50.3-32.5-78-44.5c-34.8-15-72-25.5-110.9-30.4
	c-17.3-2.2-34.9-3.3-52.7-3.3c-16.8,0-33.4,1-49.7,3c-39.1,4.7-76.4,14.9-111.3,29.7c-31.4,13.3-60.8,30.4-87.6,50.7
	c-1.1,0.8-2.1,1.6-3.2,2.5L462.5-14l-15.2,26.4l-49,84.9L318.7-40.5c0.1-0.1,0.2-0.3,0.3-0.4l-52.6-91.1l-4.7-8.1
	c0.8-0.9,1.6-1.9,2.4-2.8c25.4-28.2,53.8-53.6,84.7-75.8c27.3-19.6,56.7-36.6,87.6-50.7c34.1-15.6,70.3-27.6,107.9-35.6
	c35.2-7.4,71.7-11.4,109.1-11.4c38.4,0,75.8,4.2,111.9,12c37.5,8.2,73.6,20.3,107.6,36.1C900.3-255.6,926.4-240.7,950.9-223.7z"/>
<path class="st0" d="M1170.4,211.1c0,134.8-51,257.6-134.6,350.4c-25.4,28.2-53.8,53.6-84.8,75.7l-55.9-96.9L648.5,113.2
	l-58.4,101.2l-64.2,111.3l-2,3.5l-64.2,111.3l-58.7,101.6L345,638.9c-31-21.9-59.5-47.2-85.1-75.2
	C175.1,470.7,123.3,347,123.3,211.1c0-89.1,22.3-173,61.6-246.5l33.5,58l35.9,62.2c-12.8,39.8-19.7,82.2-19.7,126.3
	c0,94,31.5,180.7,84.5,250.1l76.3-132l64.2-111.3l2-3.5l64.3-111.3L584.3,2l64.2-111.2L712.7,2l263.7,456.8
	c51.9-68.9,82.7-154.7,82.7-247.6c0-96.1-32.9-184.5-88-254.6l59-102.1C1117.1-52,1170.4,73.3,1170.4,211.1z"/>
<path class="st0" d="M869.4,677.3c-34.2,15.6-70.3,27.6-108,35.5c-35,7.4-71.4,11.3-108.6,11.3c-72,0-140.6-14.5-203-40.8l56.2-97.3
	c45.6,17.4,95.1,26.9,146.8,26.9c16.6,0,33-1,49.2-3L596.6,427.4l64.2-111.3l152.6,264.2L869.4,677.3z"/>
<g>
	<path class="st1" d="M334.2,163.7c0,40.2-15.4,76.8-40.7,104.2c-6.8,7.4-14.3,14.1-22.4,20L257,263.3L197.4,160l-0.1-0.1
		l-16.9-29.3l-0.1-0.1l0,0l0,0.1l-17,29.4l-0.1,0.2l-17,29.4l0,0l-17,29.4l-25.6,44.3l-14.2,24.6c-8.1-5.9-15.6-12.6-22.3-20
		c0,0,0,0,0,0c-7.2-7.8-13.6-16.4-19.1-25.6c-13.6-23-21.5-49.8-21.5-78.4c0-30.1,8.6-58.2,23.6-81.9l16.5,28.6
		c-7.6,16.2-11.9,34.3-11.9,53.3c0,17.5,3.6,34.2,10.1,49.3c4.5,10.4,10.3,20.1,17.2,28.9l30.2-52.4l17-29.4l0,0l17-29.4l0.1-0.2
		l17-29.4l0-0.1l17-29.4l0,0l16.9,29.4l0,0l0.1,0.1l16.9,29.3l0.1,0.1L278.6,242c17.1-21.5,27.4-48.7,27.4-78.3
		c0-41.9-20.5-79-52-101.8c0,0-0.1,0-0.1-0.1l14.2-24.6c0,0,0.1,0,0.1,0.1C308.1,65.2,334.2,111.4,334.2,163.7z"/>
	<path class="st1" d="M242.6,23l-14.2,24.6c0,0-0.1,0-0.1,0l0,0c-9.2-3.8-19-6.5-29.2-8.1c0,0,0,0,0,0c-6.1-0.9-12.3-1.4-18.6-1.4
		c-5.1,0-10.1,0.3-15.1,0.9c-1.2,0.1-2.4,0.3-3.6,0.5c-10.2,1.5-20,4.3-29.3,8.1c0,0,0,0-0.1,0c-9.1,3.8-17.7,8.6-25.6,14.3
		c0,0-0.1,0.1-0.1,0.1l22.7,39.3l-17,29.4L84.5,82.6L69.7,56.9c6.9-7.2,14.5-13.7,22.7-19.4c8.1-5.6,16.7-10.5,25.8-14.5
		c9.1-4,18.6-7.2,28.5-9.4c10.8-2.4,22.1-3.7,33.7-3.7c0.6,0,1.2,0,1.7,0c1.9,0,3.7,0.1,5.6,0.2c9,0.4,17.7,1.6,26.2,3.5
		c9.9,2.2,19.4,5.4,28.5,9.4c0,0,0,0,0,0C242.5,22.9,242.6,23,242.6,23z"/>
	<path class="st1" d="M245.8,303c-8.9,4.2-18.4,7.6-28.2,10c0,0,0,0,0,0c-10.1,2.5-20.6,4-31.4,4.4c-1.9,0.1-3.9,0.1-5.8,0.1
		c-23.5,0-45.7-5.3-65.6-14.7l14.2-24.6c12.6,5.7,26.4,9.3,40.8,10.5c3.5,0.3,7.1,0.4,10.7,0.4c7.6,0,15.1-0.7,22.4-2c0,0,0,0,0,0
		l-39.5-68.4l17-29.4l51.4,89L245.8,303z"/>
</g>
<g>
	<path class="st2" d="M469,247.4c-24.9,0-44.6-3.9-59-11.6l3.3-28.6c16.3,12,35,18,56.1,18c12.4,0,22.6-2.3,30.8-6.8
		c8.2-4.6,12.2-11.6,12.2-21c0-4.8-1.1-9.1-3.3-12.9s-5.7-7.1-10.5-9.9c-4.8-2.8-9.6-5.1-14.3-6.7c-4.7-1.6-10.9-3.8-18.5-6.5
		c-8.3-2.9-14.3-5-18-6.3s-8.8-3.5-15.1-6.5c-6.4-3-11-6-13.9-8.9c-2.9-2.9-5.6-6.8-8-11.6c-2.4-4.8-3.6-10.2-3.6-16.2
		c0-6,1.1-11.9,3.3-17.6c2.2-5.8,5.7-11.3,10.4-16.6c4.7-5.3,11.5-9.6,20.3-12.9c8.8-3.3,19.1-4.9,30.8-4.9
		c10.8,0,21.5,1.2,32.1,3.7c10.6,2.5,18.8,5.4,24.6,8.6l-2.6,26C504.6,87.4,487.3,82,474.5,82c-10.6,0-20,2.2-28.2,6.7
		c-8.2,4.5-12.2,11.1-12.2,19.9c0,7.6,3.2,13.5,9.6,17.7c6.4,4.2,16.1,8.4,29.2,12.6c5.9,1.9,9.5,3.1,10.8,3.5
		c1.3,0.4,4.7,1.5,10.1,3.3c5.5,1.8,9.1,3.1,10.8,4l8.8,4.6c4.5,2.2,7.5,4.1,9,5.6l6.5,6.7c2.9,2.9,5,5.8,6.1,8.6s2.1,6.1,3.1,9.9
		c0.9,3.8,1.4,7.8,1.4,12c0,4.5-0.4,8.7-1.3,12.6c-0.9,4-2.7,8.3-5.7,13.1c-2.9,4.8-6.8,8.9-11.6,12.4c-4.8,3.4-11.7,6.3-20.6,8.6
		C491.3,246.2,480.9,247.4,469,247.4z"/>
	<path class="st2" d="M670.9,180.7h-91.6c2.9,30,18.7,45.1,47.4,45.1c13.2,0,25.3-2.5,36.3-7.5l3.2,18.3
		c-14.6,6.5-28.6,9.8-42.2,9.8c-21.4,0-38.2-6.3-50.2-19.1c-12-12.7-18-28.6-18-47.6c0-18.4,5.6-33.7,16.7-46.1
		c11.2-12.4,26.2-18.5,45.1-18.5c16.1,0,29.2,4.7,39.3,14.2c10,9.4,15.1,22.5,15.1,39.1C672,172.6,671.6,176.7,670.9,180.7z
		 M616.6,135.6c-18.7,0-30.6,9.7-35.5,29.1h66.4c0-9.1-2.6-16.2-7.7-21.4C634.6,138.2,626.9,135.6,616.6,135.6z"/>
	<path class="st2" d="M757.7,246.3c-6.4,0-13.4-1.7-21.2-5c-7.8-3.3-14-7.9-18.4-13.5v78.3h-23.2V117.6h18l2.6,18
		c5.8-7,11.9-12.2,18.3-15.6c6.3-3.3,14.4-5,24.2-5c16.8,0,30.3,6.4,40.4,19.3c10.1,12.9,15.2,28.3,15.2,46.4
		c0,19.2-4.8,35-14.5,47.3C789.4,240.2,775.6,246.3,757.7,246.3z M755.2,135.6c-10.1,0-19.1,4-26.8,11.8c-7.7,7.9-11.6,19-11.6,33.2
		c0,14.8,3.8,26,11.5,33.6c7.6,7.6,16.6,11.5,26.9,11.5c10.8,0,19.4-4.3,25.8-12.9c6.3-8.6,9.5-19.3,9.5-32.2
		c0-13.2-3.2-24-9.5-32.5C774.6,139.8,766,135.6,755.2,135.6z"/>
	<path class="st2" d="M943.9,228.3l-3.6,18h-1.8c-10.3,0-17.6-1.4-21.8-4.1c-4.2-2.8-7.8-7.4-10.7-13.9c-10.7,12-23.6,18-38.8,18
		c-11.5,0-20.8-3.4-27.9-10.2c-7-6.8-10.6-15.5-10.6-26c0-8.5,2.3-15.8,7.1-22c4.7-6.2,11-10.9,18.7-14c7.8-3.1,15.7-5.4,23.9-6.9
		c8.1-1.5,16.6-2.3,25.5-2.5c0-11.3-2.2-19-6.6-23.1c-4.4-4-11.4-6.1-21.1-6.1c-11.1,0-22.2,3.8-33.1,11.3l-3.3-18.8
		c11.3-8.8,25.5-13.1,42.6-13.1c16.2,0,27.7,4.5,34.5,13.4c6.8,8.9,10.2,24.6,10.2,47.1v26c0,10.1,0.9,17.1,2.6,21
		c1.7,3.9,5.7,5.9,11.8,5.9H943.9z M904,211.1v-30.5c-18.6,0.7-32,3.2-40,7.4c-8,4.3-12,11.2-12,20.7c0,13,6.6,19.5,19.7,19.5
		c6.2,0,12.2-1.6,18-4.7S900.2,216.3,904,211.1z"/>
	<path class="st2" d="M1028.4,112.9l-5.2,25.8h-8c-5.2,0-10.7,1.7-16.6,5c-5.9,3.3-10,7.1-12.2,11.2v88.9H962V117.6H981l2.7,21.1
		c7.8-9,15-15.6,21.5-19.6c6.5-4.1,13.6-6.1,21.1-6.1H1028.4z"/>
	<path class="st2" d="M1148.4,228.3l-3.6,18h-1.8c-10.3,0-17.6-1.4-21.8-4.1c-4.2-2.8-7.8-7.4-10.7-13.9c-10.7,12-23.6,18-38.8,18
		c-11.5,0-20.8-3.4-27.9-10.2c-7-6.8-10.6-15.5-10.6-26c0-8.5,2.4-15.8,7.1-22c4.7-6.2,10.9-10.9,18.7-14c7.8-3.1,15.7-5.4,23.9-6.9
		c8.1-1.5,16.6-2.3,25.5-2.5c0-11.3-2.2-19-6.6-23.1c-4.4-4-11.4-6.1-21.1-6.1c-11.1,0-22.2,3.8-33.1,11.3l-3.3-18.8
		c11.3-8.8,25.5-13.1,42.6-13.1c16.2,0,27.7,4.5,34.5,13.4c6.8,8.9,10.2,24.6,10.2,47.1v26c0,10.1,0.9,17.1,2.6,21
		c1.7,3.9,5.7,5.9,11.8,5.9H1148.4z M1108.5,211.1v-30.5c-18.6,0.7-32,3.2-40,7.4c-8,4.3-12,11.2-12,20.7c0,13,6.6,19.5,19.7,19.5
		c6.2,0,12.2-1.6,18-4.7S1104.7,216.3,1108.5,211.1z"/>
	<path class="st2" d="M1230.1,228.3l-1.8,18h-20.9c-11.2,0-19.4-2.9-24.9-8.8c-5.4-5.8-8.1-13-8.1-21.4v-80.6h-21.6l2.1-18h19.6
		V86.4l23.2-2.3v33.5h33.2v18h-33.2v66.8c0,12.3,1.3,19.6,3.9,22.1s10.1,3.8,22.7,3.8H1230.1z"/>
	<path class="st2" d="M1357.5,180.7h-91.6c2.9,30,18.7,45.1,47.4,45.1c13.2,0,25.3-2.5,36.3-7.5l3.2,18.3
		c-14.6,6.5-28.6,9.8-42.2,9.8c-21.4,0-38.2-6.3-50.2-19.1c-12-12.7-18-28.6-18-47.6c0-18.4,5.6-33.7,16.7-46.1
		c11.2-12.4,26.2-18.5,45.1-18.5c16.1,0,29.2,4.7,39.3,14.2c10,9.4,15.1,22.5,15.1,39.1C1358.6,172.6,1358.2,176.7,1357.5,180.7z
		 M1303.2,135.6c-18.7,0-30.6,9.7-35.5,29.1h66.4c0-9.1-2.6-16.2-7.7-21.4C1321.2,138.2,1313.5,135.6,1303.2,135.6z"/>
	<path class="st2" d="M1549.7,117.6l-38.1,126.2h-26.1l-26.4-93.5l-26.4,93.5h-25.9l-37.9-126.2h27.3l24.2,100.7l26.8-96.8l23.8-0.1
		l27,96.8l24.2-100.7H1549.7z"/>
	<path class="st2" d="M1674.8,180.7h-91.6c2.9,30,18.7,45.1,47.4,45.1c13.2,0,25.3-2.5,36.3-7.5l3.2,18.3
		c-14.6,6.5-28.6,9.8-42.2,9.8c-21.4,0-38.2-6.3-50.2-19.1c-12-12.7-18-28.6-18-47.6c0-18.4,5.6-33.7,16.7-46.1
		c11.2-12.4,26.2-18.5,45.1-18.5c16.1,0,29.2,4.7,39.3,14.2c10,9.4,15.1,22.5,15.1,39.1C1675.9,172.6,1675.5,176.7,1674.8,180.7z
		 M1620.5,135.6c-18.7,0-30.6,9.7-35.5,29.1h66.4c0-9.1-2.6-16.2-7.7-21.4C1638.5,138.2,1630.8,135.6,1620.5,135.6z"/>
	<path class="st2" d="M1761.8,246.3c-6.3,0-13.3-1.6-20.8-4.9c-7.5-3.3-13.5-7.8-18-13.6l-2.6,16h-21.9V50.6h24.5v80.6
		c8.9-10.8,21.9-16.2,39-16.2c16.8,0,30.4,6.4,40.7,19.3s15.5,28.3,15.5,46.4c0,18.4-5.4,33.9-16.3,46.6
		C1791.1,240,1777.7,246.3,1761.8,246.3z M1759.2,135.6c-10.1,0-18.9,4-26.3,11.8c-7.4,7.9-11.2,19-11.2,33.2c0,14.8,3.7,26,11,33.6
		c7.4,7.6,16.2,11.5,26.4,11.5c10.8,0,19.5-4.3,26-13c6.6-8.7,9.9-19.4,9.9-32.1c0-13-3.3-23.8-9.9-32.3
		C1778.7,139.8,1770,135.6,1759.2,135.6z"/>
</g>
</svg>
