<?xml version="1.0" encoding="utf-8"?>
<!-- Copyright © 2021 SeparateWeb.com All rights reserved. Rajesh-Doot  -->
<svg version="1.1" id="Layer_1" xmlns="http://www.w3.org/2000/svg" xmlns:xlink="http://www.w3.org/1999/xlink" x="0px" y="0px"
	 viewBox="0 0 1080 1080" style="enable-background:new 0 0 1080 1080;" xml:space="preserve">
<style type="text/css">
	.st0{display:none;fill:#0057FF;}
	.st1{fill:#0057FF;}
</style>
<path class="st0" d="M844.1,112.5L791.8,203l-3.6,6.3c-24.2-17.5-50.3-32.5-78-44.5c-34.8-15-72-25.5-110.9-30.4
	c-17.3-2.2-34.9-3.3-52.7-3.3c-16.8,0-33.4,1-49.7,3c-39.1,4.7-76.4,14.9-111.3,29.7C354.2,177,324.8,194,298,214.3
	c-1.1,0.8-2.1,1.6-3.2,2.5l60.8,105.4l-15.2,26.4l-49,84.9l-79.5-137.8c0.1-0.1,0.2-0.3,0.3-0.4l-52.6-91.1l-4.7-8.1
	c0.8-0.9,1.6-1.9,2.4-2.8c25.4-28.2,53.8-53.6,84.7-75.8c27.3-19.6,56.7-36.6,87.6-50.7c34.1-15.6,70.3-27.6,107.9-35.6
	c35.2-7.4,71.7-11.4,109.1-11.4c38.4,0,75.8,4.2,111.9,12C696,40,732.1,52.1,766.1,67.9C793.5,80.6,819.5,95.5,844.1,112.5z"/>
<path class="st0" d="M1063.5,547.3c0,134.8-51,257.6-134.6,350.4c-25.4,28.2-53.8,53.6-84.8,75.7l-55.9-96.9L541.6,449.4
	l-58.4,101.2L419,661.9l-2,3.5l-64.2,111.3l-58.7,101.6l-55.9,96.9c-31-21.9-59.5-47.2-85.1-75.2C68.2,806.9,16.5,683.1,16.5,547.3
	c0-89.1,22.3-173,61.6-246.5l33.5,58l35.9,62.2c-12.8,39.8-19.7,82.2-19.7,126.3c0,94,31.5,180.7,84.5,250.1l76.3-132l64.2-111.3
	l2-3.5L419,439.3l58.4-101.2l64.2-111.2l64.2,111.3L869.6,795c51.9-68.9,82.7-154.7,82.7-247.6c0-96.1-32.9-184.5-88-254.6l59-102.1
	C1010.3,284.2,1063.5,409.5,1063.5,547.3z"/>
<path class="st0" d="M762.5,1013.5c-34.2,15.6-70.3,27.6-108,35.5c-35,7.4-71.4,11.3-108.6,11.3c-72,0-140.6-14.5-203-40.8
	l56.2-97.3c45.6,17.4,95.1,26.9,146.8,26.9c16.6,0,33-1,49.2-3L489.7,763.6L554,652.3l152.6,264.2L762.5,1013.5z"/>
<path class="st1" d="M1063.4,540c0,136.8-52.4,261.3-138.3,354.5c-23.1,25.1-48.6,47.9-76.2,68.1l-48.4-83.8L597.7,527.5l-0.3-0.4
	l-57.5-99.6l-0.3-0.4l0,0l-0.1,0.2l-57.7,100l-0.3,0.5l-57.7,100l0,0l-57.7,100L279,878.6l-48.4,83.8c-27.5-20.2-53-43-76.1-68.1
	c0,0-0.1,0-0.1-0.1c-24.5-26.7-46.4-55.9-65-87.3C43,728.8,16.4,637.5,16.4,540c0-102.5,29.4-198,80.3-278.8l56.1,97.2
	c-25.9,55.1-40.4,116.6-40.4,181.5c0,59.6,12.2,116.3,34.2,167.9c15.2,35.5,35,68.5,58.7,98.2l102.9-178.3l57.7-100l0,0l57.7-100
	l0.3-0.5l57.7-100l0.1-0.2l57.7-100l0,0.1l57.7,99.9l0,0l0.3,0.4l57.5,99.6l0.3,0.4l218.8,378.9c58.3-73.1,93.2-165.7,93.2-266.4
	c0-142.5-69.7-268.7-176.9-346.4c-0.1-0.1-0.2-0.2-0.4-0.3l48.2-83.6c0.1,0.1,0.3,0.2,0.4,0.3C974.5,204.6,1063.4,361.9,1063.4,540z
	"/>
<path class="st1" d="M751.5,61l-48.4,83.8c-0.1-0.1-0.3-0.1-0.4-0.2l0,0c-31.5-13-64.8-22.3-99.5-27.4c0,0-0.1,0-0.1,0
	c-20.6-3.1-41.7-4.7-63.2-4.7c-17.4,0-34.5,1-51.3,3c-4.1,0.5-8.2,1.1-12.3,1.7c-34.7,5.2-68.1,14.5-99.6,27.5c-0.1,0-0.1,0-0.2,0.1
	c-31.1,12.9-60.4,29.3-87.3,48.8c-0.1,0.1-0.3,0.2-0.4,0.3l77.3,133.8l-57.7,100l-94.7-164l-50.4-87.4c23.5-24.4,49.5-46.5,77.4-66
	C268,91.3,297.4,74.7,328.3,61c30.9-13.7,63.3-24.4,97-32c36.9-8.2,75.2-12.6,114.5-12.6c2,0,4,0,5.9,0c6.3,0.1,12.7,0.3,19,0.6
	c30.5,1.4,60.3,5.5,89.2,11.9c33.7,7.5,66.2,18.2,97.1,31.9c0,0,0,0,0,0C751.2,60.9,751.4,61,751.5,61z"/>
<path class="st1" d="M762.4,1014.1c-30.5,14.3-62.5,25.8-95.8,34c0,0,0,0,0,0c-34.4,8.5-70.1,13.7-106.8,15
	c-6.6,0.2-13.2,0.4-19.8,0.4c-79.9,0-155.6-17.9-223.4-49.9l48.3-83.6c43,19.3,89.7,31.8,138.8,35.9c12,1,24.1,1.5,36.4,1.5
	c26,0,51.4-2.3,76.1-6.8c0,0,0,0,0,0L481.6,727.8l57.7-100l174.8,302.7L762.4,1014.1z"/>
</svg>
