<?xml version="1.0" encoding="utf-8"?>
<!-- Copyright © 2021 SeparateWeb.com All rights reserved. Rajesh-Doot  -->
<svg version="1.1" id="Layer_1" xmlns="http://www.w3.org/2000/svg" xmlns:xlink="http://www.w3.org/1999/xlink" x="0px" y="0px"
	 viewBox="0 0 120 121" style="enable-background:new 0 0 120 121;" xml:space="preserve">
<g>
	<g>
		<path d="M96.3,17.7L89.9,23l-1.5-1.1l2-5.5l-4.5,3.8l-1.5-1.1l2.8-7.8l1.4,1l-2.4,5.9L91,14l1.5,1L90.2,21l4.7-4.3L96.3,17.7z"/>
		<path d="M98,21.4l-1.4,1.4l1.9,1.9l-0.9,0.9l-1.9-1.9l-1.5,1.5l2.1,2.1l-0.9,0.9L92.2,25l5.6-5.6l3.3,3.3l-0.9,0.9L98,21.4z"/>
		<path d="M102.5,31.7c-0.1,0.5-0.4,0.8-0.7,1.1c-0.3,0.3-0.7,0.4-1.1,0.4c-0.4,0-0.8-0.1-1.2-0.3c-0.4-0.2-0.7-0.5-1.1-1l-2.1-2.7
			l6.3-4.8l2,2.6c0.3,0.4,0.5,0.9,0.6,1.3s0.1,0.8,0,1.1c-0.1,0.3-0.3,0.6-0.7,0.9c-0.4,0.3-0.8,0.4-1.2,0.4c-0.4,0-0.8-0.1-1.1-0.4
			C102.6,30.8,102.6,31.2,102.5,31.7z M100.1,31.6c0.3,0.1,0.5,0,0.8-0.2c0.3-0.2,0.4-0.5,0.4-0.8s-0.1-0.6-0.3-0.9l-1-1.3l-1.7,1.3
			l1,1.3C99.6,31.4,99.9,31.5,100.1,31.6z M101.1,27.7l0.9,1.2c0.2,0.3,0.5,0.5,0.7,0.5c0.3,0.1,0.5,0,0.8-0.2
			c0.3-0.2,0.4-0.4,0.4-0.7c0-0.3-0.1-0.6-0.3-0.9l-0.9-1.2L101.1,27.7z"/>
		<path d="M101.4,36.1c0-0.5,0-0.9,0.2-1.3c0.2-0.4,0.5-0.7,0.9-1l0.8,1.5c-0.3,0.2-0.4,0.4-0.5,0.7s0,0.6,0.2,0.9
			c0.2,0.3,0.4,0.5,0.7,0.6c0.3,0.1,0.5,0.1,0.8-0.1c0.2-0.1,0.3-0.3,0.4-0.5c0.1-0.2,0.1-0.4,0.1-0.6c0-0.2-0.1-0.5-0.2-0.9
			c-0.1-0.5-0.2-1-0.2-1.3s0-0.7,0.2-1.1c0.2-0.3,0.4-0.6,0.9-0.9c0.4-0.2,0.8-0.3,1.2-0.3s0.8,0.2,1.2,0.5c0.4,0.3,0.7,0.7,0.9,1.1
			c0.4,0.7,0.5,1.4,0.4,2s-0.5,1.2-1.1,1.5l-0.8-1.5c0.2-0.1,0.4-0.4,0.4-0.6c0.1-0.3,0-0.6-0.2-0.9c-0.2-0.3-0.3-0.5-0.6-0.5
			c-0.2-0.1-0.5-0.1-0.7,0.1c-0.2,0.1-0.3,0.2-0.4,0.4c-0.1,0.2-0.1,0.4,0,0.6s0.1,0.5,0.2,0.9c0.1,0.5,0.2,1,0.2,1.3s0,0.7-0.2,1.1
			c-0.2,0.4-0.4,0.6-0.9,0.9c-0.4,0.2-0.8,0.3-1.2,0.3c-0.4,0-0.8-0.2-1.2-0.4c-0.4-0.3-0.7-0.7-1-1.2
			C101.6,37,101.5,36.6,101.4,36.1z"/>
		<path d="M111.8,39.6l-7.3,3.1l-0.6-1.5l7.3-3.1L111.8,39.6z"/>
		<path d="M114.3,47l-1.2,0.4l-0.6-2l-6.4,1.9l-0.5-1.5l6.4-1.9l-0.6-2l1.2-0.4L114.3,47z"/>
		<path d="M113.7,50.8l-2,0.3l0.4,2.6l-1.2,0.2l-0.4-2.6l-2.1,0.3l0.5,3l-1.3,0.2l-0.8-4.6l7.9-1.3l0.8,4.6l-1.3,0.2L113.7,50.8z"/>
		<path d="M108,57.5c0.2-0.5,0.4-0.8,0.8-1.1c0.3-0.3,0.8-0.4,1.3-0.4l0.1,1.7c-0.3,0-0.6,0.2-0.8,0.4c-0.2,0.2-0.3,0.5-0.3,0.9
			c0,0.4,0.1,0.7,0.3,0.9s0.4,0.3,0.7,0.3c0.2,0,0.4-0.1,0.6-0.2c0.1-0.1,0.3-0.3,0.3-0.6c0.1-0.2,0.2-0.5,0.3-0.9
			c0.1-0.5,0.3-0.9,0.4-1.3c0.1-0.3,0.4-0.6,0.6-0.9c0.3-0.2,0.7-0.4,1.2-0.4c0.5,0,0.9,0.1,1.2,0.3c0.4,0.2,0.6,0.5,0.8,1
			c0.2,0.4,0.3,0.9,0.3,1.4c0,0.8-0.2,1.5-0.5,2c-0.4,0.5-0.9,0.8-1.6,0.9l-0.1-1.8c0.3,0,0.5-0.1,0.7-0.4c0.2-0.2,0.3-0.5,0.2-0.9
			c0-0.3-0.1-0.6-0.3-0.7c-0.2-0.2-0.4-0.3-0.7-0.3c-0.2,0-0.4,0.1-0.5,0.2c-0.1,0.1-0.2,0.3-0.3,0.5c-0.1,0.2-0.2,0.5-0.3,0.9
			c-0.1,0.5-0.3,0.9-0.4,1.3c-0.1,0.3-0.4,0.6-0.7,0.9c-0.3,0.2-0.7,0.4-1.2,0.4c-0.4,0-0.8-0.1-1.2-0.3s-0.7-0.5-0.9-0.9
			c-0.2-0.4-0.4-0.9-0.4-1.5C107.8,58.4,107.8,57.9,108,57.5z"/>
		<path d="M107.4,68.7c0.2-0.2,0.4-0.2,0.7-0.2c0.3,0,0.5,0.2,0.6,0.4s0.2,0.5,0.1,0.8c-0.1,0.3-0.2,0.5-0.4,0.6s-0.4,0.2-0.7,0.1
			s-0.5-0.2-0.6-0.4c-0.1-0.2-0.2-0.5-0.1-0.7C107,69.1,107.2,68.8,107.4,68.7z"/>
		<path d="M108.7,88.1l-7.2-3.4l0.7-1.4l4.7,2.2l-3.8-4.1l0.5-1.1l5.6,0.3l-4.7-2.2l0.7-1.4l7.2,3.4l-0.8,1.6l-6.4-0.2l4.3,4.8
			L108.7,88.1z"/>
		<path d="M100.2,87.4c0.7-0.3,1.3-0.4,2-0.3c0.7,0.1,1.4,0.3,2,0.8c0.6,0.5,1.1,1,1.4,1.7c0.3,0.7,0.4,1.3,0.3,2.1
			c-0.1,0.7-0.4,1.4-0.8,2c-0.4,0.6-1,1.1-1.6,1.3c-0.6,0.3-1.3,0.4-2,0.3s-1.4-0.3-2-0.8c-0.6-0.5-1.1-1-1.4-1.7
			c-0.3-0.7-0.4-1.3-0.3-2c0.1-0.7,0.4-1.4,0.8-2C99,88.2,99.5,87.7,100.2,87.4z M99.2,90.8c0,0.4,0,0.8,0.2,1.2
			c0.2,0.4,0.5,0.8,0.9,1.1c0.4,0.3,0.9,0.5,1.3,0.6c0.4,0.1,0.9,0,1.2-0.1s0.7-0.4,1-0.8s0.4-0.8,0.5-1.2c0-0.4,0-0.8-0.2-1.2
			c-0.2-0.4-0.5-0.8-0.9-1.1c-0.4-0.3-0.9-0.5-1.3-0.6s-0.9,0-1.3,0.1c-0.4,0.2-0.7,0.4-1,0.8C99.4,90,99.2,90.4,99.2,90.8z"/>
		<path d="M93.8,99.2c-0.5-0.1-0.9-0.3-1.2-0.6c-0.3-0.3-0.5-0.6-0.6-1c-0.1-0.4,0-0.8,0.1-1.2s0.4-0.8,0.8-1.2l2.5-2.4l5.5,5.7
			l-2.4,2.3c-0.4,0.4-0.8,0.6-1.2,0.8c-0.4,0.1-0.8,0.2-1.1,0.1c-0.4-0.1-0.7-0.3-1-0.5c-0.3-0.3-0.5-0.7-0.5-1.1s0-0.8,0.2-1.2
			C94.7,99.1,94.2,99.2,93.8,99.2z M93.6,96.8c0,0.3,0.1,0.5,0.3,0.8c0.2,0.2,0.5,0.4,0.8,0.3c0.3,0,0.6-0.2,0.9-0.4l1.1-1.1
			l-1.5-1.5L94,96C93.8,96.3,93.6,96.5,93.6,96.8z M97.5,97.3l-1,1c-0.3,0.3-0.4,0.5-0.5,0.8c0,0.3,0.1,0.5,0.3,0.7s0.5,0.3,0.7,0.3
			c0.3,0,0.5-0.2,0.8-0.4l1-1L97.5,97.3z"/>
		<path d="M93.7,105l-4.9-6.3l1.3-1L95,104L93.7,105z"/>
		<path d="M86.9,101.6l-2.2,1.4L84,102l3.5-2.3l4.3,6.7l-1.3,0.9L86.9,101.6z"/>
		<path d="M84.7,109.1l-0.9-1.8l-2.4,1.2l-0.6-1.1l2.4-1.2l-0.9-1.9l-2.7,1.3l-0.6-1.2l4.1-2l3.5,7.1l-4.1,2l-0.6-1.2L84.7,109.1z"
			/>
		<path d="M70.9,108.7l3.1-0.8l0.1-1.6l1.6-0.4l-0.8,8.4l-1.8,0.5l-4.8-7l1.6-0.4L70.9,108.7z M71.6,109.8l1.9,2.9l0.3-3.5
			L71.6,109.8z"/>
		<path d="M62.4,112.7c0.2-0.4,0.4-0.7,0.9-1c0.4-0.3,0.9-0.4,1.6-0.5l1.3-0.1l-0.3-3l1.6-0.2l0.8,7.9l-2.9,0.3
			c-0.6,0.1-1.1,0-1.6-0.2c-0.5-0.2-0.8-0.4-1.1-0.8s-0.4-0.8-0.4-1.2C62.1,113.5,62.2,113.1,62.4,112.7z M64,112.9
			c-0.2,0.2-0.3,0.5-0.2,0.9c0.1,0.8,0.5,1.1,1.4,1l1.3-0.1l-0.2-2.3l-1.3,0.1C64.5,112.5,64.2,112.7,64,112.9z"/>
		<path d="M54.9,112.5c0.2-0.4,0.5-0.7,1-0.9c0.4-0.2,1-0.3,1.6-0.3l1.3,0.1l0.1-3.1l1.6,0.1l-0.3,8l-2.9-0.1
			c-0.6,0-1.1-0.2-1.6-0.4c-0.4-0.2-0.7-0.5-0.9-0.9s-0.3-0.8-0.3-1.3C54.6,113.3,54.7,112.9,54.9,112.5z M56.6,112.9
			c-0.2,0.2-0.3,0.5-0.4,0.8c0,0.8,0.4,1.2,1.2,1.2l1.3,0.1l0.1-2.3l-1.3-0.1C57.1,112.6,56.8,112.7,56.6,112.9z"/>
		<path d="M48.3,107.1c0.1,0.2,0.2,0.5,0.1,0.7c-0.1,0.3-0.2,0.4-0.4,0.6c-0.2,0.1-0.5,0.1-0.8,0.1c-0.3-0.1-0.5-0.2-0.6-0.4
			s-0.2-0.5-0.1-0.7c0.1-0.3,0.2-0.4,0.4-0.6c0.2-0.1,0.5-0.2,0.7-0.1C47.9,106.7,48.1,106.9,48.3,107.1z"/>
		<path d="M32.8,106.5c0,0.4,0.1,0.7,0.3,1c0.2,0.3,0.5,0.6,0.9,0.8c0.4,0.2,0.8,0.3,1.3,0.3c0.4,0,0.8-0.1,1.2-0.4s0.7-0.6,0.9-1.1
			c0.3-0.5,0.4-0.9,0.4-1.4c0-0.4-0.1-0.9-0.3-1.2c-0.2-0.4-0.6-0.7-1-0.9c-0.5-0.3-1-0.4-1.5-0.3c-0.5,0.1-0.9,0.4-1.3,0.8l2.4,1.3
			l-0.6,1.1l-3.8-2.1l0.7-1.2c0.4-0.4,0.8-0.8,1.3-1c0.5-0.2,1.1-0.4,1.7-0.4c0.6,0,1.2,0.2,1.8,0.5c0.7,0.4,1.2,0.9,1.6,1.5
			c0.4,0.6,0.6,1.3,0.6,2c0,0.7-0.2,1.4-0.5,2.1c-0.4,0.7-0.9,1.2-1.5,1.6c-0.6,0.4-1.3,0.6-2,0.6c-0.7,0-1.4-0.2-2.1-0.5
			c-0.8-0.4-1.4-1-1.7-1.7c-0.4-0.7-0.5-1.5-0.3-2.3L32.8,106.5z"/>
		<path d="M29.6,97.5l-0.5,3.5l0.6,0.5l1.9-2.4l1.3,1l-4.9,6.3l-2.4-1.8c-0.5-0.4-0.8-0.8-1-1.2c-0.2-0.4-0.3-0.9-0.2-1.3
			s0.2-0.8,0.5-1.2c0.3-0.4,0.7-0.7,1.2-0.8c0.5-0.1,1-0.1,1.6,0.1l0.5-3.7L29.6,97.5z M28.9,102.4l-1.1-0.8c-0.3-0.3-0.7-0.4-1-0.3
			c-0.3,0-0.6,0.2-0.8,0.5c-0.2,0.3-0.3,0.6-0.3,0.9c0,0.3,0.2,0.6,0.6,0.8l1.1,0.8L28.9,102.4z"/>
		<path d="M22.8,93l2.2,2.3l1.5-0.7l1.1,1.2l-7.8,3.3l-1.3-1.4l3.9-7.5l1.2,1.2L22.8,93z M22.2,94.2l-1.6,3.1l3.2-1.4L22.2,94.2z"/>
		<path d="M15.2,87.4c0.4,0,0.8,0.1,1.3,0.3c0.4,0.2,0.8,0.6,1.2,1.2l0.7,1.1l2.5-1.7l0.9,1.3L15.3,94l-1.6-2.4
			c-0.3-0.5-0.6-1-0.6-1.5c-0.1-0.5,0-0.9,0.2-1.3c0.2-0.4,0.5-0.7,0.9-1C14.4,87.6,14.8,87.5,15.2,87.4z M15.9,89
			c-0.3-0.1-0.6,0-0.9,0.2c-0.6,0.4-0.7,1-0.2,1.7l0.7,1l1.9-1.3l-0.7-1C16.4,89.3,16.1,89,15.9,89z"/>
		<path d="M8.1,81.3l7.2-3.4l0.7,1.4l-3.1,1.4l1.5,3.1l3.1-1.4l0.7,1.4l-7.2,3.4l-0.7-1.4l3-1.4l-1.5-3.1l-3,1.4L8.1,81.3z"/>
		<path d="M6.8,77.5l7.5-2.5l0.5,1.5L7.3,79L6.8,77.5z"/>
		<path d="M7.8,74.6c-0.7-0.2-1.2-0.6-1.7-1.1c-0.5-0.5-0.8-1.2-0.9-1.9c-0.2-0.9-0.1-1.7,0.2-2.4c0.3-0.7,0.8-1.3,1.6-1.7l0.4,1.8
			c-0.3,0.3-0.6,0.6-0.7,0.9c-0.1,0.4-0.1,0.8-0.1,1.2c0.1,0.5,0.3,0.8,0.6,1.1c0.3,0.3,0.6,0.5,1.1,0.6s0.9,0.1,1.4,0
			c0.5-0.1,0.9-0.3,1.3-0.6c0.4-0.3,0.6-0.6,0.7-1c0.1-0.4,0.2-0.8,0.1-1.3c-0.1-0.4-0.3-0.8-0.5-1.1c-0.3-0.3-0.6-0.5-1-0.6
			l-0.4-1.8c0.8,0.1,1.6,0.4,2.1,1s1,1.3,1.1,2.2c0.2,0.7,0.1,1.5-0.1,2.1c-0.2,0.7-0.6,1.2-1.1,1.7c-0.5,0.5-1.2,0.8-2,0.9
			C9.2,74.9,8.5,74.8,7.8,74.6z"/>
		<path d="M12,63.8c-0.2,0.5-0.4,0.8-0.8,1.1c-0.3,0.3-0.8,0.4-1.2,0.4l-0.1-1.7c0.3,0,0.6-0.2,0.8-0.4c0.2-0.2,0.3-0.5,0.3-0.9
			c0-0.4-0.1-0.7-0.3-0.9c-0.2-0.2-0.4-0.3-0.7-0.3c-0.2,0-0.4,0.1-0.6,0.2C9.2,61.6,9.1,61.8,9,62c-0.1,0.2-0.2,0.5-0.3,0.9
			c-0.1,0.5-0.3,0.9-0.4,1.3c-0.1,0.3-0.3,0.6-0.6,0.9S7,65.5,6.5,65.5c-0.5,0-0.9-0.1-1.2-0.3c-0.4-0.2-0.6-0.5-0.8-1
			c-0.2-0.4-0.3-0.9-0.3-1.4c0-0.8,0.1-1.5,0.5-2c0.4-0.5,0.9-0.8,1.6-0.9l0.1,1.8c-0.3,0-0.5,0.2-0.7,0.4c-0.2,0.2-0.2,0.5-0.2,0.9
			c0,0.3,0.1,0.6,0.3,0.7c0.2,0.2,0.4,0.3,0.7,0.3c0.2,0,0.4-0.1,0.5-0.2c0.1-0.1,0.2-0.3,0.3-0.5c0.1-0.2,0.2-0.5,0.3-0.9
			c0.1-0.5,0.3-0.9,0.4-1.3c0.1-0.3,0.4-0.6,0.7-0.9c0.3-0.2,0.7-0.4,1.2-0.4c0.4,0,0.8,0.1,1.2,0.3c0.4,0.2,0.7,0.5,0.9,0.9
			s0.4,0.9,0.4,1.5C12.3,62.9,12.2,63.4,12,63.8z"/>
		<path d="M12.6,52.6c-0.2,0.2-0.4,0.2-0.7,0.2c-0.3,0-0.5-0.2-0.6-0.4c-0.1-0.2-0.2-0.5-0.1-0.7c0-0.3,0.2-0.5,0.4-0.6
			s0.4-0.2,0.7-0.2c0.3,0,0.5,0.2,0.6,0.4C13,51.5,13,51.7,13,52C12.9,52.3,12.8,52.5,12.6,52.6z"/>
		<path d="M11.1,33.2l7.2,3.3L17.6,38l-4.7-2.2l3.8,4.1L16.2,41l-5.6-0.2l4.7,2.2l-0.7,1.5l-7.2-3.3l0.8-1.6l6.4,0.2l-4.3-4.8
			L11.1,33.2z"/>
		<path d="M20.7,30.6l-1.8,2.6l0.9,1.3l-1,1.4l-4.8-7l1.1-1.5l8.1,2.3l-1,1.4L20.7,30.6z M19.4,30.2l-3.4-1l2,2.9L19.4,30.2z"/>
		<path d="M26.7,26l-3.4-0.9l-0.5,0.5l2.2,2.2L23.9,29l-5.7-5.6l2.1-2.1c0.4-0.4,0.9-0.7,1.3-0.9c0.5-0.2,0.9-0.2,1.3-0.1
			c0.4,0.1,0.8,0.3,1.1,0.6c0.4,0.4,0.6,0.8,0.7,1.3c0.1,0.5,0,1-0.3,1.6l3.6,0.9L26.7,26z M21.9,24.8l0.9-1
			c0.3-0.3,0.5-0.6,0.5-0.9c0-0.3-0.1-0.6-0.4-0.8c-0.3-0.3-0.5-0.4-0.8-0.4c-0.3,0-0.6,0.2-0.9,0.5l-0.9,1L21.9,24.8z"/>
		<path d="M32.6,21.2l-4.4-1.1l2.1,2.8l-1.3,1l-4.8-6.4l1.3-1l2.1,2.9l0.2-4.6l1.5-1.2l-0.3,5.1l5.1,1.2L32.6,21.2z"/>
		<path d="M33.2,13l1,1.7l2.3-1.3l0.6,1.1l-2.3,1.3l1,1.8l2.6-1.5l0.6,1.1l-4,2.2l-3.8-7l4-2.2l0.6,1.1L33.2,13z"/>
		<path d="M42.5,7.4l0.5,1.2l-2,0.8l2.4,6.2l-1.5,0.6l-2.4-6.2l-2,0.8L37,9.5L42.5,7.4z"/>
		<path d="M45.9,6.5l2.1,7.7l-1.5,0.4l-2.1-7.7L45.9,6.5z"/>
		<path d="M56.2,12.7l-1.6,0.2L50.2,8l0.8,5.4l-1.6,0.2l-1.2-7.9l1.6-0.2l4.4,4.9L53.4,5L55,4.8L56.2,12.7z"/>
		<path d="M63.3,7.1c-0.2-0.3-0.4-0.6-0.7-0.8c-0.3-0.2-0.7-0.3-1.1-0.3c-0.5,0-0.9,0.1-1.3,0.3c-0.4,0.2-0.7,0.5-0.9,0.9
			c-0.2,0.4-0.3,0.8-0.3,1.4c0,0.5,0.1,1,0.3,1.4c0.2,0.4,0.5,0.7,0.8,0.9s0.8,0.3,1.3,0.4c0.6,0,1.1-0.1,1.5-0.4
			c0.4-0.3,0.7-0.8,0.8-1.3l-2.7-0.1l0-1.2l4.3,0.1l0,1.4c-0.1,0.6-0.4,1.1-0.7,1.5c-0.4,0.5-0.8,0.8-1.4,1.1
			c-0.6,0.3-1.2,0.4-1.9,0.4c-0.8,0-1.5-0.2-2.1-0.6c-0.6-0.4-1.1-0.9-1.4-1.5s-0.5-1.3-0.5-2.1c0-0.8,0.2-1.5,0.6-2.1
			c0.4-0.6,0.9-1.1,1.5-1.4c0.6-0.3,1.3-0.5,2.1-0.5c0.9,0,1.7,0.3,2.3,0.7c0.7,0.5,1.1,1.1,1.3,1.9L63.3,7.1z"/>
		<path d="M71.7,13.9c-0.1-0.2-0.2-0.5-0.1-0.7c0.1-0.3,0.2-0.4,0.4-0.6s0.5-0.1,0.8-0.1c0.3,0.1,0.5,0.2,0.6,0.4
			c0.1,0.2,0.2,0.5,0.1,0.7c-0.1,0.3-0.2,0.4-0.4,0.6c-0.2,0.1-0.5,0.2-0.7,0.1C72.1,14.2,71.9,14.1,71.7,13.9z"/>
	</g>
</g>
</svg>
